<mxfile host="app.diagrams.net" modified="2022-06-27T05:04:52.068Z" agent="5.0 (Windows NT 10.0; Win64; x64) AppleWebKit/537.36 (KHTML, like Gecko) Chrome/102.0.0.0 Safari/537.36" etag="31zP0IBIv24zfSahS5CD" version="20.0.3" type="github">
  <diagram id="HUqEpaX8rb9kb8sGjZdL" name="Page-1">
    <mxGraphModel dx="1038" dy="481" grid="1" gridSize="10" guides="1" tooltips="1" connect="1" arrows="1" fold="1" page="1" pageScale="1" pageWidth="850" pageHeight="1100" math="0" shadow="0">
      <root>
        <mxCell id="0" />
        <mxCell id="1" parent="0" />
        <mxCell id="yRirgIYoV1JSDGJQefaU-3" value="" style="edgeStyle=orthogonalEdgeStyle;rounded=0;orthogonalLoop=1;jettySize=auto;html=1;" edge="1" parent="1" source="yRirgIYoV1JSDGJQefaU-1" target="yRirgIYoV1JSDGJQefaU-2">
          <mxGeometry relative="1" as="geometry" />
        </mxCell>
        <mxCell id="yRirgIYoV1JSDGJQefaU-1" value="&lt;b&gt;Start&lt;/b&gt;" style="ellipse;whiteSpace=wrap;html=1;shadow=1;fillColor=#f5f5f5;fontColor=#333333;strokeColor=#666666;" vertex="1" parent="1">
          <mxGeometry x="280" y="40" width="120" height="40" as="geometry" />
        </mxCell>
        <mxCell id="yRirgIYoV1JSDGJQefaU-5" style="edgeStyle=orthogonalEdgeStyle;rounded=0;orthogonalLoop=1;jettySize=auto;html=1;" edge="1" parent="1" source="yRirgIYoV1JSDGJQefaU-2" target="yRirgIYoV1JSDGJQefaU-4">
          <mxGeometry relative="1" as="geometry" />
        </mxCell>
        <mxCell id="yRirgIYoV1JSDGJQefaU-9" style="edgeStyle=orthogonalEdgeStyle;rounded=0;orthogonalLoop=1;jettySize=auto;html=1;entryX=1;entryY=0.5;entryDx=0;entryDy=0;" edge="1" parent="1" source="yRirgIYoV1JSDGJQefaU-2" target="yRirgIYoV1JSDGJQefaU-8">
          <mxGeometry relative="1" as="geometry" />
        </mxCell>
        <mxCell id="yRirgIYoV1JSDGJQefaU-14" value="" style="edgeStyle=orthogonalEdgeStyle;rounded=0;orthogonalLoop=1;jettySize=auto;html=1;" edge="1" parent="1" source="yRirgIYoV1JSDGJQefaU-2" target="yRirgIYoV1JSDGJQefaU-13">
          <mxGeometry relative="1" as="geometry" />
        </mxCell>
        <mxCell id="yRirgIYoV1JSDGJQefaU-2" value="&lt;b&gt;Login&lt;/b&gt;" style="rhombus;whiteSpace=wrap;html=1;shadow=1;fillColor=#f8cecc;strokeColor=#b85450;" vertex="1" parent="1">
          <mxGeometry x="300" y="110" width="80" height="80" as="geometry" />
        </mxCell>
        <mxCell id="yRirgIYoV1JSDGJQefaU-7" style="edgeStyle=orthogonalEdgeStyle;rounded=0;orthogonalLoop=1;jettySize=auto;html=1;entryX=0.5;entryY=1;entryDx=0;entryDy=0;" edge="1" parent="1" source="yRirgIYoV1JSDGJQefaU-4" target="yRirgIYoV1JSDGJQefaU-6">
          <mxGeometry relative="1" as="geometry" />
        </mxCell>
        <mxCell id="yRirgIYoV1JSDGJQefaU-4" value="&lt;b&gt;NO&lt;/b&gt;" style="rounded=1;whiteSpace=wrap;html=1;shadow=1;" vertex="1" parent="1">
          <mxGeometry x="425" y="135" width="50" height="30" as="geometry" />
        </mxCell>
        <mxCell id="yRirgIYoV1JSDGJQefaU-6" value="&lt;b&gt;Registration&lt;/b&gt;" style="rounded=0;whiteSpace=wrap;html=1;shadow=1;fillColor=#f8cecc;strokeColor=#b85450;" vertex="1" parent="1">
          <mxGeometry x="475" y="30" width="120" height="60" as="geometry" />
        </mxCell>
        <mxCell id="yRirgIYoV1JSDGJQefaU-11" style="edgeStyle=orthogonalEdgeStyle;rounded=0;orthogonalLoop=1;jettySize=auto;html=1;entryX=1;entryY=0.5;entryDx=0;entryDy=0;entryPerimeter=0;" edge="1" parent="1" source="yRirgIYoV1JSDGJQefaU-8" target="yRirgIYoV1JSDGJQefaU-10">
          <mxGeometry relative="1" as="geometry" />
        </mxCell>
        <mxCell id="yRirgIYoV1JSDGJQefaU-8" value="&lt;b&gt;Password&amp;nbsp;&lt;br&gt;Decryption&lt;/b&gt;" style="shape=process;whiteSpace=wrap;html=1;backgroundOutline=1;shadow=1;fillColor=#fff2cc;strokeColor=#d6b656;" vertex="1" parent="1">
          <mxGeometry x="150" y="90" width="120" height="60" as="geometry" />
        </mxCell>
        <mxCell id="yRirgIYoV1JSDGJQefaU-12" style="edgeStyle=orthogonalEdgeStyle;rounded=0;orthogonalLoop=1;jettySize=auto;html=1;" edge="1" parent="1" source="yRirgIYoV1JSDGJQefaU-10">
          <mxGeometry relative="1" as="geometry">
            <mxPoint x="340" y="210" as="targetPoint" />
            <Array as="points">
              <mxPoint x="60" y="210" />
              <mxPoint x="315" y="210" />
            </Array>
          </mxGeometry>
        </mxCell>
        <mxCell id="yRirgIYoV1JSDGJQefaU-10" value="&lt;b&gt;DB&lt;/b&gt;" style="shape=cylinder3;whiteSpace=wrap;html=1;boundedLbl=1;backgroundOutline=1;size=15;shadow=1;fillColor=#a20025;fontColor=#ffffff;strokeColor=#6F0000;" vertex="1" parent="1">
          <mxGeometry x="30" y="50" width="60" height="80" as="geometry" />
        </mxCell>
        <mxCell id="yRirgIYoV1JSDGJQefaU-16" value="" style="edgeStyle=orthogonalEdgeStyle;rounded=0;orthogonalLoop=1;jettySize=auto;html=1;" edge="1" parent="1" source="yRirgIYoV1JSDGJQefaU-13" target="yRirgIYoV1JSDGJQefaU-15">
          <mxGeometry relative="1" as="geometry" />
        </mxCell>
        <mxCell id="yRirgIYoV1JSDGJQefaU-13" value="&lt;b&gt;YES&lt;/b&gt;" style="rounded=1;whiteSpace=wrap;html=1;shadow=1;" vertex="1" parent="1">
          <mxGeometry x="315" y="230" width="50" height="30" as="geometry" />
        </mxCell>
        <mxCell id="yRirgIYoV1JSDGJQefaU-19" value="" style="edgeStyle=orthogonalEdgeStyle;rounded=0;orthogonalLoop=1;jettySize=auto;html=1;" edge="1" parent="1" source="yRirgIYoV1JSDGJQefaU-15" target="yRirgIYoV1JSDGJQefaU-18">
          <mxGeometry relative="1" as="geometry" />
        </mxCell>
        <mxCell id="yRirgIYoV1JSDGJQefaU-15" value="&lt;b&gt;JWT Generate&lt;/b&gt;" style="shape=process;whiteSpace=wrap;html=1;backgroundOutline=1;shadow=1;fillColor=#fff2cc;strokeColor=#d6b656;" vertex="1" parent="1">
          <mxGeometry x="280" y="300" width="120" height="60" as="geometry" />
        </mxCell>
        <mxCell id="yRirgIYoV1JSDGJQefaU-22" value="" style="edgeStyle=orthogonalEdgeStyle;rounded=0;orthogonalLoop=1;jettySize=auto;html=1;" edge="1" parent="1" source="yRirgIYoV1JSDGJQefaU-18" target="yRirgIYoV1JSDGJQefaU-21">
          <mxGeometry relative="1" as="geometry" />
        </mxCell>
        <mxCell id="yRirgIYoV1JSDGJQefaU-18" value="&lt;b&gt;Faculty CO PO DashBoard&lt;/b&gt;" style="rounded=0;whiteSpace=wrap;html=1;shadow=1;fillColor=#f8cecc;strokeColor=#b85450;" vertex="1" parent="1">
          <mxGeometry x="280" y="390" width="120" height="60" as="geometry" />
        </mxCell>
        <mxCell id="yRirgIYoV1JSDGJQefaU-21" value="&lt;b&gt;END&lt;/b&gt;" style="ellipse;whiteSpace=wrap;html=1;shadow=1;fillColor=#f5f5f5;fontColor=#333333;strokeColor=#666666;" vertex="1" parent="1">
          <mxGeometry x="280" y="480" width="120" height="60" as="geometry" />
        </mxCell>
      </root>
    </mxGraphModel>
  </diagram>
</mxfile>
